M48
; DRILL file {KiCad 7.0.8-7.0.8~ubuntu22.04.1} date Sat 11 Nov 2023 15:49:36
; FORMAT={2:4/ absolute / inch / suppress leading zeros}
; #@! TF.CreationDate,2023-11-11T15:49:36+10:00
; #@! TF.GenerationSoftware,Kicad,Pcbnew,7.0.8-7.0.8~ubuntu22.04.1
; #@! TF.FileFunction,Plated,1,4,PTH
FMAT,2
INCH,TZ
; #@! TA.AperFunction,Plated,PTH,ViaDrill
T1C0.0157
; #@! TA.AperFunction,Plated,PTH,ComponentDrill
T2C0.0315
; #@! TA.AperFunction,Plated,PTH,ComponentDrill
T3C0.0354
; #@! TA.AperFunction,Plated,PTH,ComponentDrill
T4C0.0394
; #@! TA.AperFunction,Plated,PTH,ComponentDrill
T5C0.0433
; #@! TA.AperFunction,Plated,PTH,ComponentDrill
T6C0.1260
%
G90
G05
T1
X34000Y-15200
X38600Y-16500
X52100Y-26950
T2
X31000Y-32500
X31000Y-35500
X35250Y-21250
X35254Y-23502
X35254Y-29502
X36254Y-23502
X36254Y-29502
X37219Y-21250
X37254Y-23502
X37254Y-29502
X38250Y-15500
X38250Y-18500
X38250Y-21250
X38254Y-23502
X38254Y-29502
X39250Y-15500
X39250Y-18500
X39254Y-23502
X39254Y-29502
X40219Y-21250
X40250Y-15500
X40250Y-18500
X40254Y-23502
X40254Y-29502
X40762Y-32035
X40762Y-33965
X41250Y-15500
X41250Y-18500
X41250Y-21250
X41254Y-23502
X41254Y-29502
X42250Y-15500
X42250Y-18500
X42250Y-31500
X42250Y-34500
X42254Y-23502
X42254Y-29502
X43219Y-21250
X43250Y-15500
X43250Y-18500
X43254Y-23502
X43254Y-29502
X44000Y-32031
X44000Y-34000
X44250Y-15500
X44250Y-18500
X44250Y-21250
X44254Y-23502
X44254Y-29502
X45250Y-15500
X45250Y-18500
X45254Y-23502
X45254Y-29502
X46219Y-21250
X46254Y-23502
X46254Y-29502
X47250Y-21250
X47254Y-23502
X47254Y-29502
X48254Y-23502
X48254Y-29502
X49219Y-21250
X50750Y-30016
X50750Y-31984
X52500Y-30000
X52500Y-33000
X53500Y-30000
X53500Y-33000
X54500Y-30000
X54500Y-33000
X55500Y-30000
X55500Y-33000
X56500Y-30000
X56500Y-33000
X57500Y-30000
X57500Y-33000
X58500Y-30000
X58500Y-33000
X59500Y-30000
X59500Y-33000
X70000Y-29750
X70000Y-31750
X70000Y-33750
X70000Y-35750
X73000Y-29750
X73000Y-31750
X73000Y-33750
X73000Y-35750
T3
X30500Y-38000
X31500Y-38000
X75750Y-29750
X75750Y-31750
X75750Y-33750
X75750Y-35750
X76750Y-29750
X76750Y-31750
X76750Y-33750
X76750Y-35750
T4
X31000Y-18868
X31000Y-19959
X31000Y-21049
X31000Y-22140
X32118Y-18323
X32118Y-19413
X32118Y-20504
X32118Y-21594
X32118Y-22685
X34000Y-10250
X34000Y-39250
X35000Y-10250
X35000Y-39250
X36000Y-10250
X36000Y-39250
X37000Y-10250
X37000Y-39250
X38000Y-10250
X38000Y-39250
X39000Y-10250
X39000Y-39250
X42000Y-10250
X43000Y-10250
X44000Y-10250
X44000Y-39250
X45000Y-10250
X45000Y-39250
X46000Y-10250
X46000Y-39250
X47000Y-10250
X47000Y-39250
X48000Y-10250
X48000Y-39250
X49000Y-10250
X49000Y-39250
X50000Y-10250
X50000Y-39250
X51000Y-10250
X51000Y-39250
X52000Y-10250
X52000Y-39250
X52500Y-35250
X53000Y-10250
X53000Y-39250
X53500Y-35250
X54000Y-10250
X54500Y-35250
X55000Y-10250
X55500Y-35250
X56000Y-10250
X56000Y-39250
X56500Y-35250
X57000Y-10250
X57000Y-39250
X57500Y-35250
X58000Y-15750
X58000Y-16750
X58000Y-17750
X58000Y-18750
X58000Y-19750
X58000Y-20750
X58000Y-21750
X58000Y-22750
X58000Y-39250
X58500Y-35250
X59000Y-39250
X59500Y-35250
X60000Y-10250
X60000Y-39250
X61000Y-10250
X61000Y-39250
X62000Y-10250
X62000Y-39250
X63000Y-10250
X63000Y-39250
X64000Y-10250
X64000Y-39250
X64250Y-35250
X65000Y-10250
X65000Y-39250
X65250Y-35250
X66000Y-10250
X66000Y-39250
X67000Y-10250
X67000Y-39250
X68000Y-10250
X68000Y-39250
X69000Y-10250
X69000Y-39250
X70000Y-10250
X70000Y-39250
X71000Y-10250
X71000Y-39250
X72000Y-10250
X72000Y-39250
X73000Y-10250
X73000Y-39250
X74000Y-10250
X74000Y-39250
X75000Y-10250
X75000Y-39250
T5
X35500Y-15000
X35500Y-19000
T6
X32000Y-15583
X32000Y-25425
T0
M30
