G04 #@! TF.GenerationSoftware,KiCad,Pcbnew,7.0.8-7.0.8~ubuntu22.04.1*
G04 #@! TF.CreationDate,2023-11-11T15:49:16+10:00*
G04 #@! TF.ProjectId,IoBoard,496f426f-6172-4642-9e6b-696361645f70,rev?*
G04 #@! TF.SameCoordinates,Original*
G04 #@! TF.FileFunction,Copper,L4,Bot*
G04 #@! TF.FilePolarity,Positive*
%FSLAX46Y46*%
G04 Gerber Fmt 4.6, Leading zero omitted, Abs format (unit mm)*
G04 Created by KiCad (PCBNEW 7.0.8-7.0.8~ubuntu22.04.1) date 2023-11-11 15:49:16*
%MOMM*%
%LPD*%
G01*
G04 APERTURE LIST*
G04 #@! TA.AperFunction,ComponentPad*
%ADD10C,1.600000*%
G04 #@! TD*
G04 #@! TA.AperFunction,ComponentPad*
%ADD11R,1.700000X1.700000*%
G04 #@! TD*
G04 #@! TA.AperFunction,ComponentPad*
%ADD12O,1.700000X1.700000*%
G04 #@! TD*
G04 #@! TA.AperFunction,ComponentPad*
%ADD13C,1.500000*%
G04 #@! TD*
G04 #@! TA.AperFunction,ComponentPad*
%ADD14O,1.600000X1.600000*%
G04 #@! TD*
G04 #@! TA.AperFunction,ComponentPad*
%ADD15R,1.800000X1.800000*%
G04 #@! TD*
G04 #@! TA.AperFunction,ComponentPad*
%ADD16C,1.800000*%
G04 #@! TD*
G04 #@! TA.AperFunction,ComponentPad*
%ADD17R,2.200000X2.200000*%
G04 #@! TD*
G04 #@! TA.AperFunction,ComponentPad*
%ADD18O,2.200000X2.200000*%
G04 #@! TD*
G04 #@! TA.AperFunction,ComponentPad*
%ADD19R,1.600000X1.600000*%
G04 #@! TD*
G04 #@! TA.AperFunction,ComponentPad*
%ADD20C,4.000000*%
G04 #@! TD*
G04 #@! TA.AperFunction,ViaPad*
%ADD21C,0.800000*%
G04 #@! TD*
G04 #@! TA.AperFunction,Conductor*
%ADD22C,0.250000*%
G04 #@! TD*
G04 APERTURE END LIST*
D10*
X125015000Y-53975000D03*
X120015000Y-53975000D03*
D11*
X133350000Y-89535000D03*
D12*
X135890000Y-89535000D03*
X138430000Y-89535000D03*
X140970000Y-89535000D03*
X143510000Y-89535000D03*
X146050000Y-89535000D03*
X148590000Y-89535000D03*
X151130000Y-89535000D03*
D13*
X103535000Y-81370000D03*
X103535000Y-86270000D03*
D10*
X177800000Y-75565000D03*
D14*
X185420000Y-75565000D03*
D10*
X107315000Y-87630000D03*
D14*
X107315000Y-80010000D03*
D15*
X194945000Y-85725000D03*
D16*
X192405000Y-85725000D03*
D10*
X94535000Y-53975000D03*
X89535000Y-53975000D03*
X177800000Y-85725000D03*
D14*
X185420000Y-85725000D03*
D15*
X194945000Y-75565000D03*
D16*
X192405000Y-75565000D03*
D10*
X128905000Y-76240000D03*
X128905000Y-81240000D03*
X177800000Y-90805000D03*
D14*
X185420000Y-90805000D03*
D15*
X77470000Y-96520000D03*
D16*
X80010000Y-96520000D03*
D17*
X90170000Y-48260000D03*
D18*
X90170000Y-38100000D03*
D11*
X147320000Y-57785000D03*
D12*
X147320000Y-55245000D03*
X147320000Y-52705000D03*
X147320000Y-50165000D03*
X147320000Y-47625000D03*
X147320000Y-45085000D03*
X147320000Y-42545000D03*
X147320000Y-40005000D03*
D10*
X78740000Y-82550000D03*
D14*
X78740000Y-90170000D03*
D10*
X112395000Y-53975000D03*
X117395000Y-53975000D03*
D19*
X97155000Y-46990000D03*
D14*
X99695000Y-46990000D03*
X102235000Y-46990000D03*
X104775000Y-46990000D03*
X107315000Y-46990000D03*
X109855000Y-46990000D03*
X112395000Y-46990000D03*
X114935000Y-46990000D03*
X114935000Y-39370000D03*
X112395000Y-39370000D03*
X109855000Y-39370000D03*
X107315000Y-39370000D03*
X104775000Y-39370000D03*
X102235000Y-39370000D03*
X99695000Y-39370000D03*
X97155000Y-39370000D03*
D19*
X89545000Y-74935000D03*
D14*
X92085000Y-74935000D03*
X94625000Y-74935000D03*
X97165000Y-74935000D03*
X99705000Y-74935000D03*
X102245000Y-74935000D03*
X104785000Y-74935000D03*
X107325000Y-74935000D03*
X109865000Y-74935000D03*
X112405000Y-74935000D03*
X114945000Y-74935000D03*
X117485000Y-74935000D03*
X120025000Y-74935000D03*
X122565000Y-74935000D03*
X122565000Y-59695000D03*
X120025000Y-59695000D03*
X117485000Y-59695000D03*
X114945000Y-59695000D03*
X112405000Y-59695000D03*
X109865000Y-59695000D03*
X107325000Y-59695000D03*
X104785000Y-59695000D03*
X102245000Y-59695000D03*
X99705000Y-59695000D03*
X97165000Y-59695000D03*
X94625000Y-59695000D03*
X92085000Y-59695000D03*
X89545000Y-59695000D03*
D20*
X81280000Y-39580000D03*
X81280000Y-64580000D03*
D19*
X81580000Y-57620000D03*
D10*
X81580000Y-54850000D03*
X81580000Y-52080000D03*
X81580000Y-49310000D03*
X81580000Y-46540000D03*
X78740000Y-56235000D03*
X78740000Y-53465000D03*
X78740000Y-50695000D03*
X78740000Y-47925000D03*
X111760000Y-86360000D03*
X111760000Y-81360000D03*
X177800000Y-80645000D03*
D14*
X185420000Y-80645000D03*
D10*
X104775000Y-53975000D03*
X109775000Y-53975000D03*
D15*
X194945000Y-90805000D03*
D16*
X192405000Y-90805000D03*
D11*
X86360000Y-99695000D03*
D12*
X88900000Y-99695000D03*
X91440000Y-99695000D03*
X93980000Y-99695000D03*
X96520000Y-99695000D03*
X99060000Y-99695000D03*
X111760000Y-99695000D03*
X114300000Y-99695000D03*
X116840000Y-99695000D03*
X119380000Y-99695000D03*
X121920000Y-99695000D03*
X124460000Y-99695000D03*
X127000000Y-99695000D03*
X129540000Y-99695000D03*
X132080000Y-99695000D03*
X134620000Y-99695000D03*
X142240000Y-99695000D03*
X144780000Y-99695000D03*
X147320000Y-99695000D03*
X149860000Y-99695000D03*
X152400000Y-99695000D03*
X154940000Y-99695000D03*
X157480000Y-99695000D03*
X160020000Y-99695000D03*
X162560000Y-99695000D03*
X165100000Y-99695000D03*
X167640000Y-99695000D03*
X170180000Y-99695000D03*
X172720000Y-99695000D03*
X175260000Y-99695000D03*
X177800000Y-99695000D03*
X180340000Y-99695000D03*
X182880000Y-99695000D03*
X185420000Y-99695000D03*
X187960000Y-99695000D03*
X190500000Y-99695000D03*
X190500000Y-26035000D03*
X187960000Y-26035000D03*
X185420000Y-26035000D03*
X182880000Y-26035000D03*
X180340000Y-26035000D03*
X177800000Y-26035000D03*
X175260000Y-26035000D03*
X172720000Y-26035000D03*
X170180000Y-26035000D03*
X167640000Y-26035000D03*
X165100000Y-26035000D03*
X162560000Y-26035000D03*
X160020000Y-26035000D03*
X157480000Y-26035000D03*
X154940000Y-26035000D03*
X152400000Y-26035000D03*
X144780000Y-26035000D03*
X142240000Y-26035000D03*
X139700000Y-26035000D03*
X137160000Y-26035000D03*
X134620000Y-26035000D03*
X132080000Y-26035000D03*
X129540000Y-26035000D03*
X127000000Y-26035000D03*
X124460000Y-26035000D03*
X121920000Y-26035000D03*
X119380000Y-26035000D03*
X116840000Y-26035000D03*
X114300000Y-26035000D03*
X111760000Y-26035000D03*
X109220000Y-26035000D03*
X106680000Y-26035000D03*
X99060000Y-26035000D03*
X96520000Y-26035000D03*
X93980000Y-26035000D03*
X91440000Y-26035000D03*
X88900000Y-26035000D03*
X86360000Y-26035000D03*
D15*
X194945000Y-80645000D03*
D16*
X192405000Y-80645000D03*
D11*
X165735000Y-89535000D03*
D12*
X163195000Y-89535000D03*
D19*
X133350000Y-83820000D03*
D14*
X135890000Y-83820000D03*
X138430000Y-83820000D03*
X140970000Y-83820000D03*
X143510000Y-83820000D03*
X146050000Y-83820000D03*
X148590000Y-83820000D03*
X151130000Y-83820000D03*
X151130000Y-76200000D03*
X148590000Y-76200000D03*
X146050000Y-76200000D03*
X143510000Y-76200000D03*
X140970000Y-76200000D03*
X138430000Y-76200000D03*
X135890000Y-76200000D03*
X133350000Y-76200000D03*
D10*
X97155000Y-53975000D03*
X102155000Y-53975000D03*
D21*
X132334000Y-68453000D03*
X86360000Y-38608000D03*
X98044000Y-41910000D03*
D22*
X128397000Y-93472000D02*
X134620000Y-99695000D01*
X94625000Y-74935000D02*
X94625000Y-85481000D01*
X94625000Y-85481000D02*
X102616000Y-93472000D01*
X102616000Y-93472000D02*
X128397000Y-93472000D01*
X140970000Y-76200000D02*
X140970000Y-51435000D01*
X140970000Y-51435000D02*
X147320000Y-45085000D01*
X146050000Y-71120000D02*
X143637000Y-68707000D01*
X143637000Y-51308000D02*
X143637000Y-68707000D01*
X144780000Y-77470000D02*
X146050000Y-76200000D01*
X144780000Y-99695000D02*
X144780000Y-77470000D01*
X147320000Y-47625000D02*
X143637000Y-51308000D01*
X146050000Y-76200000D02*
X146050000Y-71120000D01*
X147320000Y-77470000D02*
X148590000Y-76200000D01*
X147320000Y-99695000D02*
X147320000Y-77470000D01*
X147320000Y-50165000D02*
X154940000Y-57785000D01*
X154940000Y-57785000D02*
X154940000Y-99695000D01*
X139845000Y-50020000D02*
X139845000Y-76980000D01*
X140190000Y-77325000D02*
X142385000Y-77325000D01*
X139845000Y-76980000D02*
X140190000Y-77325000D01*
X147320000Y-42545000D02*
X139845000Y-50020000D01*
X142385000Y-77325000D02*
X143510000Y-76200000D01*
X181483000Y-95758000D02*
X185420000Y-99695000D01*
X165735000Y-89535000D02*
X171958000Y-95758000D01*
X171958000Y-95758000D02*
X181483000Y-95758000D01*
X92964000Y-32004000D02*
X118618000Y-32004000D01*
X86360000Y-38608000D02*
X92964000Y-32004000D01*
X118618000Y-32004000D02*
X118618000Y-31877000D01*
X118618000Y-31877000D02*
X124460000Y-26035000D01*
X80455000Y-53725000D02*
X81580000Y-54850000D01*
X98044000Y-43561000D02*
X89916000Y-43561000D01*
X89916000Y-43561000D02*
X82522000Y-50955000D01*
X82522000Y-50955000D02*
X80998000Y-50955000D01*
X80455000Y-51498000D02*
X80455000Y-53725000D01*
X80998000Y-50955000D02*
X80455000Y-51498000D01*
X102235000Y-39370000D02*
X98044000Y-43561000D01*
X100076000Y-44069000D02*
X104775000Y-39370000D01*
X83429000Y-52080000D02*
X91440000Y-44069000D01*
X81580000Y-52080000D02*
X83429000Y-52080000D01*
X91440000Y-44069000D02*
X100076000Y-44069000D01*
X78740000Y-50695000D02*
X77615000Y-49570000D01*
X77615000Y-47353000D02*
X83058000Y-41910000D01*
X83058000Y-41910000D02*
X98044000Y-41910000D01*
X77615000Y-49570000D02*
X77615000Y-47353000D01*
X112395000Y-39370000D02*
X111125000Y-40640000D01*
X111125000Y-71135000D02*
X107325000Y-74935000D01*
X111125000Y-40640000D02*
X111125000Y-71135000D01*
X111267000Y-76073000D02*
X112405000Y-74935000D01*
X109855000Y-39370000D02*
X108650000Y-40575000D01*
X108650000Y-40575000D02*
X108650000Y-71247000D01*
X106426000Y-76073000D02*
X111267000Y-76073000D01*
X106200000Y-73697000D02*
X106200000Y-75847000D01*
X108650000Y-71247000D02*
X106200000Y-73697000D01*
X106200000Y-75847000D02*
X106426000Y-76073000D01*
X115839000Y-76581000D02*
X117485000Y-74935000D01*
X103660000Y-76228000D02*
X104013000Y-76581000D01*
X103660000Y-73759000D02*
X103660000Y-76228000D01*
X106190000Y-40495000D02*
X106190000Y-71229000D01*
X106190000Y-71229000D02*
X103660000Y-73759000D01*
X104013000Y-76581000D02*
X115839000Y-76581000D01*
X107315000Y-39370000D02*
X106190000Y-40495000D01*
M02*
