G04 #@! TF.GenerationSoftware,KiCad,Pcbnew,7.0.8-7.0.8~ubuntu22.04.1*
G04 #@! TF.CreationDate,2023-11-11T15:49:16+10:00*
G04 #@! TF.ProjectId,IoBoard,496f426f-6172-4642-9e6b-696361645f70,rev?*
G04 #@! TF.SameCoordinates,Original*
G04 #@! TF.FileFunction,Soldermask,Top*
G04 #@! TF.FilePolarity,Negative*
%FSLAX46Y46*%
G04 Gerber Fmt 4.6, Leading zero omitted, Abs format (unit mm)*
G04 Created by KiCad (PCBNEW 7.0.8-7.0.8~ubuntu22.04.1) date 2023-11-11 15:49:16*
%MOMM*%
%LPD*%
G01*
G04 APERTURE LIST*
%ADD10C,1.600000*%
%ADD11R,1.700000X1.700000*%
%ADD12O,1.700000X1.700000*%
%ADD13C,1.500000*%
%ADD14O,1.600000X1.600000*%
%ADD15R,1.800000X1.800000*%
%ADD16C,1.800000*%
%ADD17R,2.200000X2.200000*%
%ADD18O,2.200000X2.200000*%
%ADD19R,1.600000X1.600000*%
%ADD20C,4.000000*%
%ADD21R,1.000000X1.500000*%
%ADD22C,1.000000*%
G04 APERTURE END LIST*
D10*
X125015000Y-53975000D03*
X120015000Y-53975000D03*
D11*
X133350000Y-89535000D03*
D12*
X135890000Y-89535000D03*
X138430000Y-89535000D03*
X140970000Y-89535000D03*
X143510000Y-89535000D03*
X146050000Y-89535000D03*
X148590000Y-89535000D03*
X151130000Y-89535000D03*
D13*
X103535000Y-81370000D03*
X103535000Y-86270000D03*
D10*
X177800000Y-75565000D03*
D14*
X185420000Y-75565000D03*
D10*
X107315000Y-87630000D03*
D14*
X107315000Y-80010000D03*
D15*
X194945000Y-85725000D03*
D16*
X192405000Y-85725000D03*
D10*
X94535000Y-53975000D03*
X89535000Y-53975000D03*
X177800000Y-85725000D03*
D14*
X185420000Y-85725000D03*
D15*
X194945000Y-75565000D03*
D16*
X192405000Y-75565000D03*
D10*
X128905000Y-76240000D03*
X128905000Y-81240000D03*
X177800000Y-90805000D03*
D14*
X185420000Y-90805000D03*
D15*
X77470000Y-96520000D03*
D16*
X80010000Y-96520000D03*
D17*
X90170000Y-48260000D03*
D18*
X90170000Y-38100000D03*
D11*
X147320000Y-57785000D03*
D12*
X147320000Y-55245000D03*
X147320000Y-52705000D03*
X147320000Y-50165000D03*
X147320000Y-47625000D03*
X147320000Y-45085000D03*
X147320000Y-42545000D03*
X147320000Y-40005000D03*
D10*
X78740000Y-82550000D03*
D14*
X78740000Y-90170000D03*
D10*
X112395000Y-53975000D03*
X117395000Y-53975000D03*
D19*
X97155000Y-46990000D03*
D14*
X99695000Y-46990000D03*
X102235000Y-46990000D03*
X104775000Y-46990000D03*
X107315000Y-46990000D03*
X109855000Y-46990000D03*
X112395000Y-46990000D03*
X114935000Y-46990000D03*
X114935000Y-39370000D03*
X112395000Y-39370000D03*
X109855000Y-39370000D03*
X107315000Y-39370000D03*
X104775000Y-39370000D03*
X102235000Y-39370000D03*
X99695000Y-39370000D03*
X97155000Y-39370000D03*
D19*
X89545000Y-74935000D03*
D14*
X92085000Y-74935000D03*
X94625000Y-74935000D03*
X97165000Y-74935000D03*
X99705000Y-74935000D03*
X102245000Y-74935000D03*
X104785000Y-74935000D03*
X107325000Y-74935000D03*
X109865000Y-74935000D03*
X112405000Y-74935000D03*
X114945000Y-74935000D03*
X117485000Y-74935000D03*
X120025000Y-74935000D03*
X122565000Y-74935000D03*
X122565000Y-59695000D03*
X120025000Y-59695000D03*
X117485000Y-59695000D03*
X114945000Y-59695000D03*
X112405000Y-59695000D03*
X109865000Y-59695000D03*
X107325000Y-59695000D03*
X104785000Y-59695000D03*
X102245000Y-59695000D03*
X99705000Y-59695000D03*
X97165000Y-59695000D03*
X94625000Y-59695000D03*
X92085000Y-59695000D03*
X89545000Y-59695000D03*
D20*
X81280000Y-39580000D03*
X81280000Y-64580000D03*
D19*
X81580000Y-57620000D03*
D10*
X81580000Y-54850000D03*
X81580000Y-52080000D03*
X81580000Y-49310000D03*
X81580000Y-46540000D03*
X78740000Y-56235000D03*
X78740000Y-53465000D03*
X78740000Y-50695000D03*
X78740000Y-47925000D03*
D21*
X134590000Y-70485000D03*
X135890000Y-70485000D03*
X137190000Y-70485000D03*
D10*
X111760000Y-86360000D03*
X111760000Y-81360000D03*
X177800000Y-80645000D03*
D14*
X185420000Y-80645000D03*
D10*
X104775000Y-53975000D03*
X109775000Y-53975000D03*
D15*
X194945000Y-90805000D03*
D16*
X192405000Y-90805000D03*
D11*
X86360000Y-99695000D03*
D12*
X88900000Y-99695000D03*
X91440000Y-99695000D03*
X93980000Y-99695000D03*
X96520000Y-99695000D03*
X99060000Y-99695000D03*
X111760000Y-99695000D03*
X114300000Y-99695000D03*
X116840000Y-99695000D03*
X119380000Y-99695000D03*
X121920000Y-99695000D03*
X124460000Y-99695000D03*
X127000000Y-99695000D03*
X129540000Y-99695000D03*
X132080000Y-99695000D03*
X134620000Y-99695000D03*
X142240000Y-99695000D03*
X144780000Y-99695000D03*
X147320000Y-99695000D03*
X149860000Y-99695000D03*
X152400000Y-99695000D03*
X154940000Y-99695000D03*
X157480000Y-99695000D03*
X160020000Y-99695000D03*
X162560000Y-99695000D03*
X165100000Y-99695000D03*
X167640000Y-99695000D03*
X170180000Y-99695000D03*
X172720000Y-99695000D03*
X175260000Y-99695000D03*
X177800000Y-99695000D03*
X180340000Y-99695000D03*
X182880000Y-99695000D03*
X185420000Y-99695000D03*
X187960000Y-99695000D03*
X190500000Y-99695000D03*
X190500000Y-26035000D03*
X187960000Y-26035000D03*
X185420000Y-26035000D03*
X182880000Y-26035000D03*
X180340000Y-26035000D03*
X177800000Y-26035000D03*
X175260000Y-26035000D03*
X172720000Y-26035000D03*
X170180000Y-26035000D03*
X167640000Y-26035000D03*
X165100000Y-26035000D03*
X162560000Y-26035000D03*
X160020000Y-26035000D03*
X157480000Y-26035000D03*
X154940000Y-26035000D03*
X152400000Y-26035000D03*
X144780000Y-26035000D03*
X142240000Y-26035000D03*
X139700000Y-26035000D03*
X137160000Y-26035000D03*
X134620000Y-26035000D03*
X132080000Y-26035000D03*
X129540000Y-26035000D03*
X127000000Y-26035000D03*
X124460000Y-26035000D03*
X121920000Y-26035000D03*
X119380000Y-26035000D03*
X116840000Y-26035000D03*
X114300000Y-26035000D03*
X111760000Y-26035000D03*
X109220000Y-26035000D03*
X106680000Y-26035000D03*
X99060000Y-26035000D03*
X96520000Y-26035000D03*
X93980000Y-26035000D03*
X91440000Y-26035000D03*
X88900000Y-26035000D03*
X86360000Y-26035000D03*
D15*
X194945000Y-80645000D03*
D16*
X192405000Y-80645000D03*
D11*
X165735000Y-89535000D03*
D12*
X163195000Y-89535000D03*
D19*
X133350000Y-83820000D03*
D14*
X135890000Y-83820000D03*
X138430000Y-83820000D03*
X140970000Y-83820000D03*
X143510000Y-83820000D03*
X146050000Y-83820000D03*
X148590000Y-83820000D03*
X151130000Y-83820000D03*
X151130000Y-76200000D03*
X148590000Y-76200000D03*
X146050000Y-76200000D03*
X143510000Y-76200000D03*
X140970000Y-76200000D03*
X138430000Y-76200000D03*
X135890000Y-76200000D03*
X133350000Y-76200000D03*
D10*
X97155000Y-53975000D03*
X102155000Y-53975000D03*
D22*
X142367000Y-55245000D03*
M02*
