
    .include play1.s

; Melody data: https://github.com/robsoncouto/arduino-songs/blob/master/merrychristmas/merrychristmas.ino
; Original score: https://musescore.com/user/6208766/scores/1497501

song:
    .db NOTE_C5, DUR_Q, NOTE_F5, DUR_Q, NOTE_F5, DUR_E
    .db NOTE_G5, DUR_E, NOTE_F5, DUR_E, NOTE_E5, DUR_E
    .db NOTE_D5, DUR_Q, NOTE_D5, DUR_Q, NOTE_D5, DUR_Q
    .db NOTE_G5, DUR_Q, NOTE_G5, DUR_E, NOTE_A5, DUR_E
    .db NOTE_G5, DUR_E, NOTE_F5, DUR_E, NOTE_E5, DUR_Q
    .db NOTE_C5, DUR_Q, NOTE_C5, DUR_Q, NOTE_A5, DUR_Q
    .db NOTE_A5, DUR_E, NOTE_AS5, DUR_E, NOTE_A5, DUR_E
    .db NOTE_G5, DUR_E, NOTE_F5, DUR_Q, NOTE_D5, DUR_Q
    .db NOTE_C5, DUR_E, NOTE_C5, DUR_E, NOTE_D5, DUR_Q
    .db NOTE_G5, DUR_Q, NOTE_E5, DUR_Q, NOTE_F5, DUR_H
    .db NOTE_C5, DUR_Q, NOTE_F5, DUR_Q, NOTE_F5, DUR_E
    .db NOTE_G5, DUR_E, NOTE_F5, DUR_E, NOTE_E5, DUR_E
    .db NOTE_D5, DUR_Q, NOTE_D5, DUR_Q, NOTE_D5, DUR_Q
    .db NOTE_G5, DUR_Q, NOTE_G5, DUR_E, NOTE_A5, DUR_E
    .db NOTE_G5, DUR_E, NOTE_F5, DUR_E, NOTE_E5, DUR_Q
    .db NOTE_C5, DUR_Q, NOTE_C5, DUR_Q, NOTE_A5, DUR_Q
    .db NOTE_A5, DUR_E, NOTE_AS5, DUR_E, NOTE_A5, DUR_E
    .db NOTE_G5, DUR_E, NOTE_F5, DUR_Q, NOTE_D5, DUR_Q
    .db NOTE_C5, DUR_E, NOTE_C5, DUR_E, NOTE_D5, DUR_Q
    .db NOTE_G5, DUR_Q, NOTE_E5, DUR_Q, NOTE_F5, DUR_H
    .db NOTE_C5, DUR_Q, NOTE_F5, DUR_Q, NOTE_F5, DUR_Q
    .db NOTE_F5, DUR_Q, NOTE_E5, DUR_H, NOTE_E5, DUR_Q
    .db NOTE_F5, DUR_Q, NOTE_E5, DUR_Q, NOTE_D5, DUR_Q
    .db NOTE_C5, DUR_H, NOTE_A5, DUR_Q, NOTE_AS5, DUR_Q
    .db NOTE_A5, DUR_Q, NOTE_G5, DUR_Q, NOTE_C6, DUR_Q
    .db NOTE_C5, DUR_Q, NOTE_C5, DUR_E, NOTE_C5, DUR_E
    .db NOTE_D5, DUR_Q, NOTE_G5, DUR_Q, NOTE_E5, DUR_Q
    .db NOTE_F5, DUR_H, NOTE_C5, DUR_Q, NOTE_F5, DUR_Q
    .db NOTE_F5, DUR_E, NOTE_G5, DUR_E, NOTE_F5, DUR_E
    .db NOTE_E5, DUR_E, NOTE_D5, DUR_Q, NOTE_D5, DUR_Q
    .db NOTE_D5, DUR_Q, NOTE_G5, DUR_Q, NOTE_G5, DUR_E
    .db NOTE_A5, DUR_E, NOTE_G5, DUR_E, NOTE_F5, DUR_E
    .db NOTE_E5, DUR_Q, NOTE_C5, DUR_Q, NOTE_C5, DUR_Q
    .db NOTE_A5, DUR_Q, NOTE_A5, DUR_E, NOTE_AS5, DUR_E
    .db NOTE_A5, DUR_E, NOTE_G5, DUR_E, NOTE_F5, DUR_Q
    .db NOTE_D5, DUR_Q, NOTE_C5, DUR_E, NOTE_C5, DUR_E
    .db NOTE_D5, DUR_Q, NOTE_G5, DUR_Q, NOTE_E5, DUR_Q
    .db NOTE_F5, DUR_H, NOTE_C5, DUR_Q, NOTE_F5, DUR_Q
    .db NOTE_F5, DUR_Q, NOTE_F5, DUR_Q, NOTE_E5, DUR_H
    .db NOTE_E5, DUR_Q, NOTE_F5, DUR_Q, NOTE_E5, DUR_Q
    .db NOTE_D5, DUR_Q, NOTE_C5, DUR_H, NOTE_A5, DUR_Q
    .db NOTE_AS5, DUR_Q, NOTE_A5, DUR_Q, NOTE_G5, DUR_Q
    .db NOTE_C6, DUR_Q, NOTE_C5, DUR_Q, NOTE_C5, DUR_E
    .db NOTE_C5, DUR_E, NOTE_D5, DUR_Q, NOTE_G5, DUR_Q
    .db NOTE_E5, DUR_Q, NOTE_F5, DUR_H, NOTE_C5, DUR_Q
    .db NOTE_F5, DUR_Q, NOTE_F5, DUR_E, NOTE_G5, DUR_E
    .db NOTE_F5, DUR_E, NOTE_E5, DUR_E, NOTE_D5, DUR_Q
    .db NOTE_D5, DUR_Q, NOTE_D5, DUR_Q, NOTE_G5, DUR_Q
    .db NOTE_G5, DUR_E, NOTE_A5, DUR_E, NOTE_G5, DUR_E
    .db NOTE_F5, DUR_E, NOTE_E5, DUR_Q, NOTE_C5, DUR_Q
    .db NOTE_C5, DUR_Q, NOTE_A5, DUR_Q, NOTE_A5, DUR_E
    .db NOTE_AS5, DUR_E, NOTE_A5, DUR_E, NOTE_G5, DUR_E
    .db NOTE_F5, DUR_Q, NOTE_D5, DUR_Q, NOTE_C5, DUR_E
    .db NOTE_C5, DUR_E, NOTE_D5, DUR_Q, NOTE_G5, DUR_Q
    .db NOTE_E5, DUR_Q, NOTE_F5, DUR_H, NOTE_C5, DUR_Q
    .db NOTE_F5, DUR_Q, NOTE_F5, DUR_E, NOTE_G5, DUR_E
    .db NOTE_F5, DUR_E, NOTE_E5, DUR_E, NOTE_D5, DUR_Q
    .db NOTE_D5, DUR_Q, NOTE_D5, DUR_Q, NOTE_G5, DUR_Q
    .db NOTE_G5, DUR_E, NOTE_A5, DUR_E, NOTE_G5, DUR_E
    .db NOTE_F5, DUR_E, NOTE_E5, DUR_Q, NOTE_C5, DUR_Q
    .db NOTE_C5, DUR_Q, NOTE_A5, DUR_Q, NOTE_A5, DUR_E
    .db NOTE_AS5, DUR_E, NOTE_A5, DUR_E, NOTE_G5, DUR_E
    .db NOTE_F5, DUR_Q, NOTE_D5, DUR_Q, NOTE_C5, DUR_E
    .db NOTE_C5, DUR_E, NOTE_D5, DUR_Q, NOTE_G5, DUR_Q
    .db NOTE_E5, DUR_Q, NOTE_F5, DUR_H
    .db 0

    .include play2.s
