M48
; DRILL file {KiCad 7.0.8-7.0.8~ubuntu22.04.1} date Sat 11 Nov 2023 15:45:26
; FORMAT={2:4/ absolute / inch / suppress leading zeros}
; #@! TF.CreationDate,2023-11-11T15:45:26+10:00
; #@! TF.GenerationSoftware,Kicad,Pcbnew,7.0.8-7.0.8~ubuntu22.04.1
; #@! TF.FileFunction,Plated,1,4,PTH
FMAT,2
INCH,TZ
; #@! TA.AperFunction,Plated,PTH,ViaDrill
T1C0.0157
; #@! TA.AperFunction,Plated,PTH,ComponentDrill
T2C0.0295
; #@! TA.AperFunction,Plated,PTH,ComponentDrill
T3C0.0315
; #@! TA.AperFunction,Plated,PTH,ComponentDrill
T4C0.0354
; #@! TA.AperFunction,Plated,PTH,ComponentDrill
T5C0.0394
; #@! TA.AperFunction,Plated,PTH,ComponentDrill
T6C0.0433
%
G90
G05
T1
X37750Y-30500
X37750Y-31250
X37750Y-32000
X37750Y-32750
X37750Y-33500
X37750Y-34250
X37750Y-35000
X37750Y-35750
X37750Y-36500
X37750Y-37250
X38500Y-30500
X38500Y-31250
X38500Y-32000
X38500Y-32750
X38500Y-33500
X38500Y-34250
X38500Y-35000
X38500Y-35750
X38500Y-36500
X38500Y-37250
X39250Y-30500
X39250Y-31250
X39250Y-32000
X39250Y-32750
X39250Y-33500
X39250Y-34250
X39250Y-35000
X39250Y-35750
X39250Y-36500
X39250Y-37250
X40000Y-30500
X40000Y-31250
X40000Y-32000
X40000Y-32750
X40000Y-33500
X40000Y-34250
X40000Y-36500
X40000Y-37250
X40750Y-30500
X40750Y-31250
X40750Y-32000
X40750Y-32750
X40750Y-33500
X40750Y-34250
X40750Y-36500
X40750Y-37250
X41500Y-30500
X41500Y-31250
X41500Y-32000
X41500Y-32750
X41500Y-33500
X41500Y-34250
X41500Y-36500
X41500Y-37250
X42250Y-30500
X42250Y-31250
X42250Y-32000
X42250Y-32750
X42250Y-33500
X42250Y-34250
X42250Y-35000
X42250Y-35750
X42250Y-36500
X42250Y-37250
X43000Y-30500
X43000Y-31250
X43000Y-32000
X43000Y-32750
X43000Y-33500
X43000Y-34250
X43000Y-35000
X43000Y-35750
X43000Y-36500
X43000Y-37250
X43750Y-30500
X43750Y-31250
X43750Y-32000
X43750Y-32750
X43750Y-33500
X43750Y-34250
X43750Y-35000
X43750Y-35750
X43750Y-36500
X43750Y-37250
X54750Y-12750
X55500Y-24500
X56000Y-21000
X56250Y-27500
X65750Y-17250
X78715Y-14105
X79104Y-14048
T2
X33500Y-32500
X33500Y-33000
X33500Y-33500
T3
X27750Y-17000
X27750Y-20000
X29500Y-15000
X30750Y-22250
X30750Y-25250
X32500Y-15000
X32766Y-36000
X33750Y-17000
X33750Y-20000
X33750Y-22250
X33750Y-25250
X34734Y-36000
X35250Y-28000
X35250Y-28984
X35250Y-30766
X35250Y-32734
X36000Y-15000
X36000Y-21000
X36000Y-34281
X36000Y-36250
X36750Y-22500
X36750Y-25500
X37000Y-15000
X37000Y-21000
X38000Y-15000
X38000Y-21000
X38500Y-22500
X38500Y-25500
X39000Y-15000
X39000Y-21000
X40000Y-15000
X40000Y-21000
X41000Y-15000
X41000Y-21000
X41500Y-22500
X41500Y-25500
X42000Y-15000
X42000Y-21000
X43000Y-15000
X43000Y-21000
X43766Y-24250
X44000Y-15000
X44000Y-21000
X45000Y-15000
X45000Y-21000
X45734Y-24250
X46000Y-15000
X46000Y-21000
X47000Y-15000
X47000Y-21000
X48000Y-15000
X48000Y-21000
X49000Y-15000
X49000Y-21000
X49000Y-25250
X49000Y-28250
X50000Y-15000
X50000Y-21000
X50000Y-25250
X50000Y-28250
X50000Y-30750
X50000Y-36750
X51000Y-15000
X51000Y-21000
X51000Y-25250
X51000Y-28250
X51000Y-30750
X51000Y-36750
X52000Y-15000
X52000Y-21000
X52000Y-25250
X52000Y-28250
X52000Y-30750
X52000Y-36750
X53000Y-15000
X53000Y-21000
X53000Y-25250
X53000Y-28250
X53000Y-30750
X53000Y-36750
X54000Y-15000
X54000Y-21000
X54000Y-25250
X54000Y-28250
X54000Y-30750
X54000Y-36750
X55000Y-15000
X55000Y-21000
X55000Y-25250
X55000Y-28250
X55000Y-30750
X55000Y-36750
X56000Y-25250
X56000Y-28250
X56000Y-30750
X56000Y-36750
X57000Y-18266
X57000Y-20234
X57000Y-25250
X57000Y-28250
X57000Y-30750
X57000Y-36750
X58000Y-25250
X58000Y-28250
X58000Y-30750
X58000Y-36750
X59000Y-15000
X59000Y-21000
X59000Y-25250
X59000Y-28250
X59000Y-30750
X59000Y-36750
X60000Y-15000
X60000Y-21000
X60000Y-25250
X60000Y-28250
X60000Y-30750
X60000Y-36750
X61000Y-15000
X61000Y-21000
X61000Y-30750
X61000Y-36750
X61750Y-25750
X61750Y-27719
X62000Y-15000
X62000Y-21000
X62000Y-30750
X62000Y-36750
X63000Y-15000
X63000Y-21000
X63000Y-30750
X63000Y-36750
X63500Y-25250
X63500Y-28250
X64000Y-15000
X64000Y-21000
X64000Y-30750
X64000Y-36750
X64500Y-25250
X64500Y-28250
X65000Y-15000
X65000Y-21000
X65000Y-30750
X65000Y-36750
X65500Y-25250
X65500Y-28250
X66000Y-15000
X66000Y-21000
X66000Y-30750
X66000Y-36750
X66500Y-25250
X66500Y-28250
X67000Y-15000
X67000Y-21000
X67000Y-30750
X67000Y-36750
X67500Y-25250
X67500Y-28250
X68000Y-15000
X68000Y-21000
X68000Y-30750
X68000Y-36750
X68500Y-25250
X68500Y-28250
X69000Y-15000
X69000Y-21000
X69000Y-30750
X69000Y-36750
X69500Y-25250
X69500Y-28250
X70000Y-15000
X70000Y-21000
X70750Y-32766
X70750Y-34734
X71000Y-15000
X71000Y-21000
X71250Y-25531
X71250Y-27500
X72000Y-15000
X72000Y-21000
X72000Y-37000
X73250Y-25531
X73250Y-27500
X75000Y-37000
X78000Y-12000
X78031Y-36000
X80000Y-36000
X81000Y-12000
T4
X75000Y-12000
X76000Y-12000
T5
X26000Y-23000
X26000Y-24000
X26000Y-25000
X26000Y-28000
X26000Y-29000
X26000Y-30000
X29000Y-11000
X29000Y-40000
X30000Y-11000
X30000Y-40000
X31000Y-11000
X31000Y-40000
X32000Y-11000
X32000Y-40000
X33000Y-11000
X33000Y-40000
X34000Y-11000
X34000Y-40000
X37000Y-11000
X38000Y-11000
X39000Y-11000
X39000Y-40000
X40000Y-11000
X40000Y-40000
X41000Y-11000
X41000Y-40000
X42000Y-11000
X42000Y-40000
X43000Y-11000
X43000Y-40000
X44000Y-11000
X44000Y-40000
X45000Y-11000
X45000Y-40000
X46000Y-11000
X46000Y-40000
X46500Y-26250
X46500Y-27250
X47000Y-11000
X47000Y-40000
X48000Y-11000
X48000Y-40000
X49000Y-11000
X50000Y-11000
X51000Y-11000
X51000Y-39990
X52000Y-11000
X52000Y-39990
X53000Y-39990
X54000Y-39990
X55000Y-11000
X55000Y-39990
X56000Y-11000
X56000Y-39990
X57000Y-11000
X57000Y-39990
X58000Y-11000
X58000Y-39990
X59000Y-11000
X59000Y-39990
X60000Y-11000
X60000Y-39990
X61000Y-11000
X61000Y-39990
X62000Y-11000
X62000Y-39990
X63000Y-11000
X63000Y-39990
X64000Y-11000
X64000Y-39990
X65000Y-11000
X65000Y-39990
X66000Y-11000
X66000Y-39990
X67000Y-11000
X67000Y-39990
X68000Y-11000
X68000Y-39990
X69000Y-11000
X69000Y-39990
X70000Y-11000
X70000Y-39990
X74000Y-40000
X75000Y-40000
X76000Y-17000
X76000Y-18000
X76000Y-19000
X76000Y-20000
X76000Y-21000
X76000Y-22000
X76000Y-23000
X76000Y-24000
X76000Y-25000
X76000Y-26000
X76000Y-27000
X76000Y-28000
X76000Y-29000
X76000Y-30000
X82000Y-17000
X82000Y-18000
X82000Y-19000
X82000Y-20000
X82000Y-21000
X82000Y-22000
X82000Y-23000
X82000Y-24000
X82000Y-25000
X82000Y-26000
X82000Y-27000
X82000Y-28000
X82000Y-29000
X82000Y-30000
T6
X28000Y-28000
X32000Y-28000
X39750Y-28866
X40750Y-28866
X41750Y-28866
X46250Y-31750
X46250Y-35750
X77441Y-38228
X77441Y-40000
X80000Y-38228
X80000Y-40000
T5
G00X27250Y-34229
M15
G01X27250Y-35017
M16
G05
G00X28037Y-36473
M15
G01X28825Y-36473
M16
G05
G00X29612Y-34229
M15
G01X29612Y-35017
M16
G05
T0
M30
