G04 #@! TF.GenerationSoftware,KiCad,Pcbnew,7.0.8-7.0.8~ubuntu22.04.1*
G04 #@! TF.CreationDate,2023-11-11T15:44:52+10:00*
G04 #@! TF.ProjectId,MiniComputerBase,4d696e69-436f-46d7-9075-746572426173,rev?*
G04 #@! TF.SameCoordinates,Original*
G04 #@! TF.FileFunction,Copper,L4,Bot*
G04 #@! TF.FilePolarity,Positive*
%FSLAX46Y46*%
G04 Gerber Fmt 4.6, Leading zero omitted, Abs format (unit mm)*
G04 Created by KiCad (PCBNEW 7.0.8-7.0.8~ubuntu22.04.1) date 2023-11-11 15:44:52*
%MOMM*%
%LPD*%
G01*
G04 APERTURE LIST*
G04 Aperture macros list*
%AMRoundRect*
0 Rectangle with rounded corners*
0 $1 Rounding radius*
0 $2 $3 $4 $5 $6 $7 $8 $9 X,Y pos of 4 corners*
0 Add a 4 corners polygon primitive as box body*
4,1,4,$2,$3,$4,$5,$6,$7,$8,$9,$2,$3,0*
0 Add four circle primitives for the rounded corners*
1,1,$1+$1,$2,$3*
1,1,$1+$1,$4,$5*
1,1,$1+$1,$6,$7*
1,1,$1+$1,$8,$9*
0 Add four rect primitives between the rounded corners*
20,1,$1+$1,$2,$3,$4,$5,0*
20,1,$1+$1,$4,$5,$6,$7,0*
20,1,$1+$1,$6,$7,$8,$9,0*
20,1,$1+$1,$8,$9,$2,$3,0*%
G04 Aperture macros list end*
G04 #@! TA.AperFunction,ComponentPad*
%ADD10C,1.600000*%
G04 #@! TD*
G04 #@! TA.AperFunction,ComponentPad*
%ADD11R,1.600000X1.600000*%
G04 #@! TD*
G04 #@! TA.AperFunction,ComponentPad*
%ADD12O,1.600000X1.600000*%
G04 #@! TD*
G04 #@! TA.AperFunction,ComponentPad*
%ADD13R,1.700000X1.700000*%
G04 #@! TD*
G04 #@! TA.AperFunction,ComponentPad*
%ADD14O,1.700000X1.700000*%
G04 #@! TD*
G04 #@! TA.AperFunction,ComponentPad*
%ADD15R,1.905000X2.000000*%
G04 #@! TD*
G04 #@! TA.AperFunction,ComponentPad*
%ADD16O,1.905000X2.000000*%
G04 #@! TD*
G04 #@! TA.AperFunction,ComponentPad*
%ADD17C,2.000000*%
G04 #@! TD*
G04 #@! TA.AperFunction,ComponentPad*
%ADD18R,3.500000X3.500000*%
G04 #@! TD*
G04 #@! TA.AperFunction,ComponentPad*
%ADD19RoundRect,0.750000X-0.750000X-1.000000X0.750000X-1.000000X0.750000X1.000000X-0.750000X1.000000X0*%
G04 #@! TD*
G04 #@! TA.AperFunction,ComponentPad*
%ADD20RoundRect,0.875000X-0.875000X-0.875000X0.875000X-0.875000X0.875000X0.875000X-0.875000X0.875000X0*%
G04 #@! TD*
G04 #@! TA.AperFunction,ComponentPad*
%ADD21R,2.200000X2.200000*%
G04 #@! TD*
G04 #@! TA.AperFunction,ComponentPad*
%ADD22O,2.200000X2.200000*%
G04 #@! TD*
G04 #@! TA.AperFunction,ComponentPad*
%ADD23R,1.500000X1.050000*%
G04 #@! TD*
G04 #@! TA.AperFunction,ComponentPad*
%ADD24O,1.500000X1.050000*%
G04 #@! TD*
G04 #@! TA.AperFunction,ComponentPad*
%ADD25R,1.800000X1.800000*%
G04 #@! TD*
G04 #@! TA.AperFunction,ComponentPad*
%ADD26C,1.800000*%
G04 #@! TD*
G04 #@! TA.AperFunction,ComponentPad*
%ADD27R,2.000000X1.440000*%
G04 #@! TD*
G04 #@! TA.AperFunction,ComponentPad*
%ADD28O,2.000000X1.440000*%
G04 #@! TD*
G04 #@! TA.AperFunction,ViaPad*
%ADD29C,0.800000*%
G04 #@! TD*
G04 #@! TA.AperFunction,Conductor*
%ADD30C,0.250000*%
G04 #@! TD*
G04 #@! TA.AperFunction,Conductor*
%ADD31C,1.500000*%
G04 #@! TD*
G04 APERTURE END LIST*
D10*
X91440000Y-87075000D03*
X91440000Y-92075000D03*
D11*
X91440000Y-53340000D03*
D12*
X93980000Y-53340000D03*
X96520000Y-53340000D03*
X99060000Y-53340000D03*
X101600000Y-53340000D03*
X104140000Y-53340000D03*
X106680000Y-53340000D03*
X109220000Y-53340000D03*
X111760000Y-53340000D03*
X114300000Y-53340000D03*
X116840000Y-53340000D03*
X119380000Y-53340000D03*
X121920000Y-53340000D03*
X124460000Y-53340000D03*
X127000000Y-53340000D03*
X129540000Y-53340000D03*
X132080000Y-53340000D03*
X134620000Y-53340000D03*
X137160000Y-53340000D03*
X139700000Y-53340000D03*
X139700000Y-38100000D03*
X137160000Y-38100000D03*
X134620000Y-38100000D03*
X132080000Y-38100000D03*
X129540000Y-38100000D03*
X127000000Y-38100000D03*
X124460000Y-38100000D03*
X121920000Y-38100000D03*
X119380000Y-38100000D03*
X116840000Y-38100000D03*
X114300000Y-38100000D03*
X111760000Y-38100000D03*
X109220000Y-38100000D03*
X106680000Y-38100000D03*
X104140000Y-38100000D03*
X101600000Y-38100000D03*
X99060000Y-38100000D03*
X96520000Y-38100000D03*
X93980000Y-38100000D03*
X91440000Y-38100000D03*
D13*
X93980000Y-27940000D03*
D14*
X96520000Y-27940000D03*
X99060000Y-27940000D03*
X101600000Y-27940000D03*
X104140000Y-27940000D03*
X106680000Y-27940000D03*
X109220000Y-27940000D03*
X111760000Y-27940000D03*
X114300000Y-27940000D03*
X116840000Y-27940000D03*
X119380000Y-27940000D03*
X121920000Y-27940000D03*
X124460000Y-27940000D03*
X127000000Y-27940000D03*
X129540000Y-27940000D03*
X132080000Y-27940000D03*
D10*
X74930000Y-38100000D03*
D12*
X82550000Y-38100000D03*
D11*
X89535000Y-71120000D03*
D10*
X89535000Y-73620000D03*
X93345000Y-64770000D03*
D12*
X93345000Y-57150000D03*
D13*
X139700000Y-27940000D03*
D14*
X142240000Y-27940000D03*
X144780000Y-27940000D03*
X147320000Y-27940000D03*
X149860000Y-27940000D03*
X152400000Y-27940000D03*
X154940000Y-27940000D03*
X157480000Y-27940000D03*
X160020000Y-27940000D03*
X162560000Y-27940000D03*
X165100000Y-27940000D03*
X167640000Y-27940000D03*
X170180000Y-27940000D03*
X172720000Y-27940000D03*
X175260000Y-27940000D03*
X177800000Y-27940000D03*
D13*
X129540000Y-101575000D03*
D14*
X132080000Y-101575000D03*
X134620000Y-101575000D03*
X137160000Y-101575000D03*
X139700000Y-101575000D03*
X142240000Y-101575000D03*
X144780000Y-101575000D03*
X147320000Y-101575000D03*
X149860000Y-101575000D03*
X152400000Y-101575000D03*
X154940000Y-101575000D03*
X157480000Y-101575000D03*
X160020000Y-101575000D03*
X162560000Y-101575000D03*
X165100000Y-101575000D03*
X167640000Y-101575000D03*
X170180000Y-101575000D03*
X172720000Y-101575000D03*
X175260000Y-101575000D03*
X177800000Y-101575000D03*
D10*
X180975000Y-69850000D03*
X180975000Y-64850000D03*
D11*
X70485000Y-50800000D03*
D10*
X85725000Y-50800000D03*
X85725000Y-43180000D03*
X70485000Y-43180000D03*
X97790000Y-64770000D03*
D12*
X97790000Y-57150000D03*
D13*
X118110000Y-69215000D03*
D14*
X118110000Y-66675000D03*
D13*
X121920000Y-101600000D03*
D14*
X119380000Y-101600000D03*
X116840000Y-101600000D03*
X114300000Y-101600000D03*
X111760000Y-101600000D03*
X109220000Y-101600000D03*
X106680000Y-101600000D03*
X104140000Y-101600000D03*
X101600000Y-101600000D03*
X99060000Y-101600000D03*
D11*
X176530000Y-64135000D03*
D12*
X173990000Y-64135000D03*
X171450000Y-64135000D03*
X168910000Y-64135000D03*
X166370000Y-64135000D03*
X163830000Y-64135000D03*
X161290000Y-64135000D03*
X161290000Y-71755000D03*
X163830000Y-71755000D03*
X166370000Y-71755000D03*
X168910000Y-71755000D03*
X171450000Y-71755000D03*
X173990000Y-71755000D03*
X176530000Y-71755000D03*
D10*
X83225000Y-91440000D03*
X88225000Y-91440000D03*
D11*
X152400000Y-64135000D03*
D12*
X149860000Y-64135000D03*
X147320000Y-64135000D03*
X144780000Y-64135000D03*
X142240000Y-64135000D03*
X139700000Y-64135000D03*
X137160000Y-64135000D03*
X134620000Y-64135000D03*
X132080000Y-64135000D03*
X129540000Y-64135000D03*
X127000000Y-64135000D03*
X124460000Y-64135000D03*
X124460000Y-71755000D03*
X127000000Y-71755000D03*
X129540000Y-71755000D03*
X132080000Y-71755000D03*
X134620000Y-71755000D03*
X137160000Y-71755000D03*
X139700000Y-71755000D03*
X142240000Y-71755000D03*
X144780000Y-71755000D03*
X147320000Y-71755000D03*
X149860000Y-71755000D03*
X152400000Y-71755000D03*
D10*
X198200000Y-91440000D03*
X203200000Y-91440000D03*
D15*
X106045000Y-73320000D03*
D16*
X103505000Y-73320000D03*
X100965000Y-73320000D03*
D10*
X198120000Y-30480000D03*
D12*
X205740000Y-30480000D03*
D17*
X196700000Y-97100000D03*
X203200000Y-97100000D03*
X196700000Y-101600000D03*
X203200000Y-101600000D03*
D11*
X149860000Y-53340000D03*
D12*
X152400000Y-53340000D03*
X154940000Y-53340000D03*
X157480000Y-53340000D03*
X160020000Y-53340000D03*
X162560000Y-53340000D03*
X165100000Y-53340000D03*
X167640000Y-53340000D03*
X170180000Y-53340000D03*
X172720000Y-53340000D03*
X175260000Y-53340000D03*
X177800000Y-53340000D03*
X180340000Y-53340000D03*
X182880000Y-53340000D03*
X182880000Y-38100000D03*
X180340000Y-38100000D03*
X177800000Y-38100000D03*
X175260000Y-38100000D03*
X172720000Y-38100000D03*
X170180000Y-38100000D03*
X167640000Y-38100000D03*
X165100000Y-38100000D03*
X162560000Y-38100000D03*
X160020000Y-38100000D03*
X157480000Y-38100000D03*
X154940000Y-38100000D03*
X152400000Y-38100000D03*
X149860000Y-38100000D03*
D10*
X144780000Y-46395000D03*
X144780000Y-51395000D03*
X182880000Y-93980000D03*
D12*
X190500000Y-93980000D03*
D13*
X66040000Y-71120000D03*
D14*
X66040000Y-73660000D03*
X66040000Y-76200000D03*
D13*
X66040000Y-58420000D03*
D14*
X66040000Y-60960000D03*
X66040000Y-63500000D03*
D10*
X111165000Y-61595000D03*
X116165000Y-61595000D03*
D18*
X75215000Y-87942500D03*
D19*
X69215000Y-87942500D03*
D20*
X72215000Y-92642500D03*
D10*
X105410000Y-64770000D03*
D12*
X105410000Y-57150000D03*
D10*
X89535000Y-83145000D03*
X89535000Y-78145000D03*
D21*
X81280000Y-71120000D03*
D22*
X71120000Y-71120000D03*
D11*
X127000000Y-93345000D03*
D12*
X129540000Y-93345000D03*
X132080000Y-93345000D03*
X134620000Y-93345000D03*
X137160000Y-93345000D03*
X139700000Y-93345000D03*
X142240000Y-93345000D03*
X144780000Y-93345000D03*
X147320000Y-93345000D03*
X149860000Y-93345000D03*
X152400000Y-93345000D03*
X154940000Y-93345000D03*
X157480000Y-93345000D03*
X160020000Y-93345000D03*
X162560000Y-93345000D03*
X165100000Y-93345000D03*
X167640000Y-93345000D03*
X170180000Y-93345000D03*
X172720000Y-93345000D03*
X175260000Y-93345000D03*
X175260000Y-78105000D03*
X172720000Y-78105000D03*
X170180000Y-78105000D03*
X167640000Y-78105000D03*
X165100000Y-78105000D03*
X162560000Y-78105000D03*
X160020000Y-78105000D03*
X157480000Y-78105000D03*
X154940000Y-78105000D03*
X152400000Y-78105000D03*
X149860000Y-78105000D03*
X147320000Y-78105000D03*
X144780000Y-78105000D03*
X142240000Y-78105000D03*
X139700000Y-78105000D03*
X137160000Y-78105000D03*
X134620000Y-78105000D03*
X132080000Y-78105000D03*
X129540000Y-78105000D03*
X127000000Y-78105000D03*
D23*
X85090000Y-85090000D03*
D24*
X85090000Y-83820000D03*
X85090000Y-82550000D03*
D10*
X156845000Y-70405000D03*
X156845000Y-65405000D03*
D25*
X193040000Y-30480000D03*
D26*
X190500000Y-30480000D03*
D10*
X186055000Y-69850000D03*
X186055000Y-64850000D03*
X179705000Y-88225000D03*
X179705000Y-83225000D03*
D13*
X190500000Y-101600000D03*
D14*
X187960000Y-101600000D03*
D13*
X73660000Y-101600000D03*
D14*
X76200000Y-101600000D03*
X78740000Y-101600000D03*
X81280000Y-101600000D03*
X83820000Y-101600000D03*
X86360000Y-101600000D03*
D27*
X208280000Y-76200000D03*
D28*
X208280000Y-73660000D03*
X208280000Y-71120000D03*
X208280000Y-68580000D03*
X208280000Y-66040000D03*
X208280000Y-63500000D03*
X208280000Y-60960000D03*
X208280000Y-58420000D03*
X208280000Y-55880000D03*
X208280000Y-53340000D03*
X208280000Y-50800000D03*
X208280000Y-48260000D03*
X208280000Y-45720000D03*
X208280000Y-43180000D03*
X193040000Y-43180000D03*
X193040000Y-45720000D03*
X193040000Y-48260000D03*
X193040000Y-50800000D03*
X193040000Y-53340000D03*
X193040000Y-55880000D03*
X193040000Y-58420000D03*
X193040000Y-60960000D03*
X193040000Y-63500000D03*
X193040000Y-66040000D03*
X193040000Y-68580000D03*
X193040000Y-71120000D03*
X193040000Y-73660000D03*
X193040000Y-76200000D03*
D13*
X73660000Y-27940000D03*
D14*
X76200000Y-27940000D03*
X78740000Y-27940000D03*
X81280000Y-27940000D03*
X83820000Y-27940000D03*
X86360000Y-27940000D03*
D21*
X117475000Y-90805000D03*
D22*
X117475000Y-80645000D03*
D11*
X78105000Y-64135000D03*
D10*
X85725000Y-64135000D03*
X85725000Y-56515000D03*
X78105000Y-56515000D03*
D29*
X199936158Y-35827081D03*
X200925000Y-35681490D03*
X97790000Y-90805000D03*
X101600000Y-86995000D03*
X103505000Y-92710000D03*
X99695000Y-79375000D03*
X97790000Y-86995000D03*
X101600000Y-83185000D03*
X109220000Y-77470000D03*
X105410000Y-83185000D03*
X111125000Y-92710000D03*
X105410000Y-86995000D03*
X99695000Y-83185000D03*
X103505000Y-79375000D03*
X107315000Y-81280000D03*
X95885000Y-92710000D03*
X99695000Y-90805000D03*
X99695000Y-77470000D03*
X99695000Y-85090000D03*
X97790000Y-81280000D03*
X101600000Y-94615000D03*
X105410000Y-79375000D03*
X107315000Y-79375000D03*
X103505000Y-86995000D03*
X101600000Y-92710000D03*
X97790000Y-83185000D03*
X109220000Y-94615000D03*
X95885000Y-79375000D03*
X95885000Y-77470000D03*
X111125000Y-90805000D03*
X101600000Y-85090000D03*
X95885000Y-90805000D03*
X97790000Y-92710000D03*
X109220000Y-81280000D03*
X95885000Y-86995000D03*
X95885000Y-88900000D03*
X103505000Y-81280000D03*
X97790000Y-85090000D03*
X111125000Y-77470000D03*
X109220000Y-88900000D03*
X99695000Y-86995000D03*
X107315000Y-77470000D03*
X99695000Y-88900000D03*
X105410000Y-77470000D03*
X101600000Y-77470000D03*
X99695000Y-81280000D03*
X95885000Y-83185000D03*
X95885000Y-81280000D03*
X111125000Y-81280000D03*
X95885000Y-94615000D03*
X99695000Y-94615000D03*
X97790000Y-88900000D03*
X103505000Y-83185000D03*
X109220000Y-90805000D03*
X111125000Y-83185000D03*
X101600000Y-79375000D03*
X111125000Y-79375000D03*
X107315000Y-90805000D03*
X103505000Y-94615000D03*
X103505000Y-85090000D03*
X107315000Y-94615000D03*
X107315000Y-83185000D03*
X99695000Y-92710000D03*
X109220000Y-92710000D03*
X105410000Y-92710000D03*
X111125000Y-88900000D03*
X97790000Y-79375000D03*
X97790000Y-77470000D03*
X107315000Y-85090000D03*
X107315000Y-86995000D03*
X109220000Y-83185000D03*
X109220000Y-85090000D03*
X107315000Y-92710000D03*
X107315000Y-88900000D03*
X101600000Y-81280000D03*
X109220000Y-79375000D03*
X105410000Y-94615000D03*
X95885000Y-85090000D03*
X111125000Y-86995000D03*
X111125000Y-85090000D03*
X103505000Y-77470000D03*
X105410000Y-85090000D03*
X97790000Y-94615000D03*
X109220000Y-86995000D03*
X111125000Y-94615000D03*
X105410000Y-81280000D03*
X167005000Y-43815000D03*
X139065000Y-32385000D03*
X140970000Y-62230000D03*
X142240000Y-53340000D03*
X142875000Y-69850000D03*
D30*
X152400000Y-38100000D02*
X147320000Y-43180000D01*
X131064000Y-52070000D02*
X130810000Y-52324000D01*
X147320000Y-43180000D02*
X144018000Y-43180000D01*
X144018000Y-43180000D02*
X139573000Y-47625000D01*
X139573000Y-47625000D02*
X136211122Y-47625000D01*
X130810000Y-52324000D02*
X130810000Y-65405000D01*
X136211122Y-47625000D02*
X131766122Y-52070000D01*
X131766122Y-52070000D02*
X131064000Y-52070000D01*
X130810000Y-65405000D02*
X124460000Y-71755000D01*
X129540000Y-53340000D02*
X129540000Y-51816000D01*
X131445000Y-51435000D02*
X150495000Y-32385000D01*
X129540000Y-51816000D02*
X129921000Y-51435000D01*
X129921000Y-51435000D02*
X131445000Y-51435000D01*
X150495000Y-32385000D02*
X153035000Y-32385000D01*
X153035000Y-32385000D02*
X157480000Y-27940000D01*
X154090000Y-27940000D02*
X131274000Y-50756000D01*
X127000000Y-53340000D02*
X129584000Y-50756000D01*
X129584000Y-50756000D02*
X131274000Y-50756000D01*
D31*
X83820000Y-27940000D02*
X83820000Y-26543000D01*
X83290000Y-103400000D02*
X83820000Y-102870000D01*
X83820000Y-26543000D02*
X83312000Y-26035000D01*
X83312000Y-26035000D02*
X72521496Y-26035000D01*
X72521496Y-26035000D02*
X71516955Y-27039541D01*
X71516955Y-27039541D02*
X71516955Y-30218881D01*
X71516955Y-30218881D02*
X62540000Y-39195836D01*
X62540000Y-39195836D02*
X62540000Y-93523504D01*
X62540000Y-93523504D02*
X72416496Y-103400000D01*
X72416496Y-103400000D02*
X83290000Y-103400000D01*
X83820000Y-102870000D02*
X83820000Y-101600000D01*
D30*
X144780000Y-64135000D02*
X138430000Y-70485000D01*
X138430000Y-70485000D02*
X138430000Y-72898000D01*
X190500000Y-73660000D02*
X193040000Y-71120000D01*
X138430000Y-72898000D02*
X139192000Y-73660000D01*
X139192000Y-73660000D02*
X190500000Y-73660000D01*
X149860000Y-27940000D02*
X147320000Y-30480000D01*
X147320000Y-30480000D02*
X147320000Y-32383604D01*
X147320000Y-32383604D02*
X130808604Y-48895000D01*
X130808604Y-48895000D02*
X126365000Y-48895000D01*
X126365000Y-48895000D02*
X121920000Y-53340000D01*
D31*
X81280000Y-71120000D02*
X89535000Y-71120000D01*
X104845000Y-71120000D02*
X106045000Y-72320000D01*
X106045000Y-72320000D02*
X106045000Y-73320000D01*
X89535000Y-71120000D02*
X104845000Y-71120000D01*
D30*
X148746940Y-86360000D02*
X148668470Y-86281530D01*
X190500000Y-93980000D02*
X189230000Y-93980000D01*
X210820000Y-39370000D02*
X214312500Y-42862500D01*
X93980000Y-27940000D02*
X95885000Y-26035000D01*
X181610000Y-86360000D02*
X148746940Y-86360000D01*
X95885000Y-26035000D02*
X179070000Y-26035000D01*
X142240000Y-79853061D02*
X148668470Y-86281530D01*
X192405000Y-39370000D02*
X210820000Y-39370000D01*
X189230000Y-93980000D02*
X181610000Y-86360000D01*
X142240000Y-78105000D02*
X142240000Y-79853061D01*
X214312500Y-42862500D02*
X214312500Y-90487500D01*
X214312500Y-90487500D02*
X203200000Y-101600000D01*
X179070000Y-26035000D02*
X192405000Y-39370000D01*
D31*
X66040000Y-60960000D02*
X65190000Y-60960000D01*
X66040000Y-71120000D02*
X71120000Y-71120000D01*
X73660000Y-30480000D02*
X73660000Y-27940000D01*
X79820000Y-94805000D02*
X73660000Y-100965000D01*
X71120000Y-65190000D02*
X66890000Y-60960000D01*
X65190000Y-60960000D02*
X64240000Y-60010000D01*
X71120000Y-71120000D02*
X71120000Y-65190000D01*
X64240000Y-39900000D02*
X73660000Y-30480000D01*
X73660000Y-100965000D02*
X73660000Y-101600000D01*
X79820000Y-79820000D02*
X79820000Y-94805000D01*
X66890000Y-60960000D02*
X66040000Y-60960000D01*
X71120000Y-71120000D02*
X79820000Y-79820000D01*
X64240000Y-60010000D02*
X64240000Y-39900000D01*
X74720000Y-81490000D02*
X75215000Y-81985000D01*
X74720000Y-81490000D02*
X66890000Y-73660000D01*
X75215000Y-81985000D02*
X75215000Y-87942500D01*
X66890000Y-73660000D02*
X66040000Y-73660000D01*
D30*
X127000000Y-46355000D02*
X118745000Y-46355000D01*
X130890000Y-76915000D02*
X132080000Y-78105000D01*
X118745000Y-46355000D02*
X111760000Y-53340000D01*
X121020000Y-62600000D02*
X121020000Y-74669188D01*
X121020000Y-74669188D02*
X123265812Y-76915000D01*
X139700000Y-27940000D02*
X130810000Y-36830000D01*
X130810000Y-42545000D02*
X127000000Y-46355000D01*
X173845000Y-54465000D02*
X172720000Y-53340000D01*
X111760000Y-53340000D02*
X121020000Y-62600000D01*
X207155000Y-54465000D02*
X173845000Y-54465000D01*
X123265812Y-76915000D02*
X130890000Y-76915000D01*
X130810000Y-36830000D02*
X130810000Y-42545000D01*
X208280000Y-53340000D02*
X207155000Y-54465000D01*
X142240000Y-27940000D02*
X133350000Y-36830000D01*
X133350000Y-41275000D02*
X132715000Y-41910000D01*
X189535000Y-54915000D02*
X171755000Y-54915000D01*
X132715000Y-41910000D02*
X127635000Y-46990000D01*
X120650000Y-46990000D02*
X114300000Y-53340000D01*
X121470000Y-60510000D02*
X121470000Y-74482792D01*
X208280000Y-55880000D02*
X207235000Y-56925000D01*
X121470000Y-74482792D02*
X123452208Y-76465000D01*
X127635000Y-46990000D02*
X120650000Y-46990000D01*
X191545000Y-56925000D02*
X189535000Y-54915000D01*
X207235000Y-56925000D02*
X191545000Y-56925000D01*
X114300000Y-53340000D02*
X121470000Y-60510000D01*
X171755000Y-54915000D02*
X170180000Y-53340000D01*
X132980000Y-76465000D02*
X134620000Y-78105000D01*
X123452208Y-76465000D02*
X132980000Y-76465000D01*
X133350000Y-36830000D02*
X133350000Y-41275000D01*
X122370000Y-47810000D02*
X116840000Y-53340000D01*
X135890000Y-40640000D02*
X128905000Y-47625000D01*
X207235000Y-57375000D02*
X191358604Y-57375000D01*
X135070000Y-76015000D02*
X137160000Y-78105000D01*
X191358604Y-57375000D02*
X189348604Y-55365000D01*
X128905000Y-47625000D02*
X128905000Y-47810000D01*
X208280000Y-58420000D02*
X207235000Y-57375000D01*
X123638604Y-76015000D02*
X135070000Y-76015000D01*
X169665000Y-55365000D02*
X167640000Y-53340000D01*
X189348604Y-55365000D02*
X169665000Y-55365000D01*
X116840000Y-53340000D02*
X121920000Y-58420000D01*
X121920000Y-74296396D02*
X123638604Y-76015000D01*
X135890000Y-36830000D02*
X135890000Y-40640000D01*
X128905000Y-47810000D02*
X122370000Y-47810000D01*
X121920000Y-58420000D02*
X121920000Y-74296396D01*
X144780000Y-27940000D02*
X135890000Y-36830000D01*
X119380000Y-54610000D02*
X122555000Y-57785000D01*
X119380000Y-53340000D02*
X124460000Y-48260000D01*
X122555000Y-57785000D02*
X122555000Y-74295000D01*
X119380000Y-53340000D02*
X119380000Y-54610000D01*
X208280000Y-60960000D02*
X206785000Y-59465000D01*
X123825000Y-75565000D02*
X137160000Y-75565000D01*
X147320000Y-27940000D02*
X138430000Y-36830000D01*
X206785000Y-59465000D02*
X192180000Y-59465000D01*
X129540000Y-48260000D02*
X138430000Y-39370000D01*
X122555000Y-74295000D02*
X123825000Y-75565000D01*
X167575000Y-55815000D02*
X165100000Y-53340000D01*
X192180000Y-59465000D02*
X188530000Y-55815000D01*
X124460000Y-48260000D02*
X129540000Y-48260000D01*
X188530000Y-55815000D02*
X167575000Y-55815000D01*
X138430000Y-39370000D02*
X138430000Y-36830000D01*
X137160000Y-75565000D02*
X139700000Y-78105000D01*
X208280000Y-63500000D02*
X204695000Y-59915000D01*
X204695000Y-59915000D02*
X191993604Y-59915000D01*
X191993604Y-59915000D02*
X188343604Y-56265000D01*
X188343604Y-56265000D02*
X165485000Y-56265000D01*
X165485000Y-56265000D02*
X162560000Y-53340000D01*
X127635000Y-50165000D02*
X124460000Y-53340000D01*
X191135000Y-60960000D02*
X192180000Y-62005000D01*
X188276104Y-56833896D02*
X191135000Y-59692792D01*
X152400000Y-27940000D02*
X130175000Y-50165000D01*
X192180000Y-62005000D02*
X204245000Y-62005000D01*
X160020000Y-53340000D02*
X163513896Y-56833896D01*
X163513896Y-56833896D02*
X188276104Y-56833896D01*
X191135000Y-59692792D02*
X191135000Y-60960000D01*
X204245000Y-62005000D02*
X208280000Y-66040000D01*
X130175000Y-50165000D02*
X127635000Y-50165000D01*
X202155000Y-62455000D02*
X191993604Y-62455000D01*
X127000000Y-52520000D02*
X127000000Y-53340000D01*
X191993604Y-62455000D02*
X190497906Y-60959302D01*
X208280000Y-68580000D02*
X202155000Y-62455000D01*
X127000000Y-53340000D02*
X127000000Y-64135000D01*
X161609594Y-57469594D02*
X157480000Y-53340000D01*
X154940000Y-27940000D02*
X154090000Y-27940000D01*
X188275406Y-57469594D02*
X161609594Y-57469594D01*
X190497906Y-60959302D02*
X190497906Y-59692094D01*
X190497906Y-59692094D02*
X188275406Y-57469594D01*
X191135000Y-62232792D02*
X189862208Y-60960000D01*
X201705000Y-64545000D02*
X192327576Y-64545000D01*
X208280000Y-71120000D02*
X201705000Y-64545000D01*
X192327576Y-64545000D02*
X191135000Y-63352424D01*
X188089010Y-57919594D02*
X159519594Y-57919594D01*
X189862208Y-60960000D02*
X189862208Y-59692792D01*
X129540000Y-53340000D02*
X129540000Y-64135000D01*
X159519594Y-57919594D02*
X154940000Y-53340000D01*
X191135000Y-63352424D02*
X191135000Y-62232792D01*
X189862208Y-59692792D02*
X188089010Y-57919594D01*
X157480000Y-41907208D02*
X150757208Y-48630000D01*
X157480000Y-38100000D02*
X157480000Y-30480000D01*
X157480000Y-38100000D02*
X157480000Y-41907208D01*
X132080000Y-53340000D02*
X132080000Y-53975000D01*
X160020000Y-27940000D02*
X157480000Y-30480000D01*
X132080000Y-53340000D02*
X136790000Y-48630000D01*
X150757208Y-48630000D02*
X137425000Y-48630000D01*
X132080000Y-53975000D02*
X132080000Y-64135000D01*
X136790000Y-48630000D02*
X137425000Y-48630000D01*
X160020000Y-38100000D02*
X160020000Y-30480000D01*
X150943604Y-49080000D02*
X160020000Y-40003604D01*
X134620000Y-53340000D02*
X134620000Y-64135000D01*
X160020000Y-40003604D02*
X160020000Y-38100000D01*
X134620000Y-53340000D02*
X138880000Y-49080000D01*
X138880000Y-49080000D02*
X150943604Y-49080000D01*
X162560000Y-27940000D02*
X160020000Y-30480000D01*
X167640000Y-38100000D02*
X167640000Y-36195000D01*
X137160000Y-53340000D02*
X137160000Y-64135000D01*
X163195000Y-31115000D02*
X167640000Y-35560000D01*
X167005000Y-43815000D02*
X167640000Y-43180000D01*
X167640000Y-43180000D02*
X167640000Y-38100000D01*
X163195000Y-29845000D02*
X163195000Y-31115000D01*
X165100000Y-27940000D02*
X163195000Y-29845000D01*
X167640000Y-35560000D02*
X167640000Y-36195000D01*
X139700000Y-53340000D02*
X139700000Y-64135000D01*
X143510000Y-49530000D02*
X151130000Y-49530000D01*
X139700000Y-53340000D02*
X143510000Y-49530000D01*
X151130000Y-49530000D02*
X162560000Y-38100000D01*
X142240000Y-58900380D02*
X148925380Y-52215000D01*
X187956510Y-58423490D02*
X157483490Y-58423490D01*
X189226510Y-59693490D02*
X187956510Y-58423490D01*
X190497906Y-62232094D02*
X189226510Y-60960698D01*
X192141180Y-64995000D02*
X190497906Y-63351726D01*
X151275000Y-52215000D02*
X152400000Y-53340000D01*
X208280000Y-73660000D02*
X199615000Y-64995000D01*
X142240000Y-64135000D02*
X142240000Y-58900380D01*
X199615000Y-64995000D02*
X192141180Y-64995000D01*
X157483490Y-58423490D02*
X152400000Y-53340000D01*
X148925380Y-52215000D02*
X151275000Y-52215000D01*
X189226510Y-60960698D02*
X189226510Y-59693490D01*
X190497906Y-63351726D02*
X190497906Y-62232094D01*
X134620000Y-36830000D02*
X134620000Y-38100000D01*
X139065000Y-32385000D02*
X134620000Y-36830000D01*
X199165000Y-67085000D02*
X192180000Y-67085000D01*
X149860000Y-61595000D02*
X147320000Y-64135000D01*
X188590812Y-60961396D02*
X188590812Y-59694188D01*
X155579188Y-59059188D02*
X149860000Y-53340000D01*
X187955812Y-59059188D02*
X155579188Y-59059188D01*
X168910000Y-64135000D02*
X170035000Y-63010000D01*
X166370000Y-61595000D02*
X149860000Y-61595000D01*
X189862208Y-62232792D02*
X188590812Y-60961396D01*
X191135000Y-64770000D02*
X189862208Y-63497208D01*
X189862208Y-63497208D02*
X189862208Y-62232792D01*
X192180000Y-67085000D02*
X191135000Y-66040000D01*
X172865000Y-63010000D02*
X173990000Y-64135000D01*
X208280000Y-76200000D02*
X199165000Y-67085000D01*
X168910000Y-64135000D02*
X166370000Y-61595000D01*
X170035000Y-63010000D02*
X172865000Y-63010000D01*
X191135000Y-66040000D02*
X191135000Y-64770000D01*
X188590812Y-59694188D02*
X187955812Y-59059188D01*
X149860000Y-53340000D02*
X149860000Y-61595000D01*
X140970000Y-62230000D02*
X140970000Y-54610000D01*
X140970000Y-54610000D02*
X142240000Y-53340000D01*
X163895000Y-69280000D02*
X166370000Y-71755000D01*
X152335000Y-69280000D02*
X163895000Y-69280000D01*
X149860000Y-71755000D02*
X152335000Y-69280000D01*
X143365000Y-68090000D02*
X139700000Y-71755000D01*
X167495000Y-68090000D02*
X143365000Y-68090000D01*
X171450000Y-64135000D02*
X167495000Y-68090000D01*
X97790000Y-29210000D02*
X97790000Y-31750000D01*
X97790000Y-52070000D02*
X97790000Y-31750000D01*
X99060000Y-27940000D02*
X97790000Y-29210000D01*
X96520000Y-53340000D02*
X97790000Y-52070000D01*
X99060000Y-53340000D02*
X99695000Y-52705000D01*
X113665000Y-76835000D02*
X113665000Y-69850000D01*
X112395000Y-68580000D02*
X104775000Y-68580000D01*
X113665000Y-69850000D02*
X112395000Y-68580000D01*
X104775000Y-68580000D02*
X97790000Y-61595000D01*
X101600000Y-27940000D02*
X100330000Y-29210000D01*
X100330000Y-29210000D02*
X100330000Y-52070000D01*
X97790000Y-61595000D02*
X97790000Y-57150000D01*
X100330000Y-52070000D02*
X99695000Y-52705000D01*
X117475000Y-80645000D02*
X113665000Y-76835000D01*
X104140000Y-27940000D02*
X102870000Y-29210000D01*
X102870000Y-52070000D02*
X104140000Y-53340000D01*
X102870000Y-29210000D02*
X102870000Y-52070000D01*
D31*
X83185000Y-86995000D02*
X84885000Y-85295000D01*
X83820000Y-96520000D02*
X83185000Y-95885000D01*
X83820000Y-101600000D02*
X83820000Y-96520000D01*
X83185000Y-95885000D02*
X83185000Y-86995000D01*
X84885000Y-85295000D02*
X85090000Y-85295000D01*
D30*
X172720000Y-78105000D02*
X168910000Y-74295000D01*
X168910000Y-74295000D02*
X127000000Y-74295000D01*
X127000000Y-74295000D02*
X124460000Y-71755000D01*
X136525000Y-85090000D02*
X144145000Y-85090000D01*
X129990000Y-78555000D02*
X136525000Y-85090000D01*
X151142500Y-100317500D02*
X152400000Y-101575000D01*
X151130000Y-92075000D02*
X151130000Y-100305000D01*
X144145000Y-85090000D02*
X151130000Y-92075000D01*
X129990000Y-78105000D02*
X129990000Y-78555000D01*
X142875000Y-86360000D02*
X148590000Y-92075000D01*
X135255000Y-86360000D02*
X142875000Y-86360000D01*
X127000000Y-78105000D02*
X135255000Y-86360000D01*
X148590000Y-100305000D02*
X149860000Y-101575000D01*
X148590000Y-92075000D02*
X148590000Y-100305000D01*
M02*
