G04 #@! TF.GenerationSoftware,KiCad,Pcbnew,7.0.8-7.0.8~ubuntu22.04.1*
G04 #@! TF.CreationDate,2023-11-11T15:44:52+10:00*
G04 #@! TF.ProjectId,MiniComputerBase,4d696e69-436f-46d7-9075-746572426173,rev?*
G04 #@! TF.SameCoordinates,Original*
G04 #@! TF.FileFunction,Soldermask,Bot*
G04 #@! TF.FilePolarity,Negative*
%FSLAX46Y46*%
G04 Gerber Fmt 4.6, Leading zero omitted, Abs format (unit mm)*
G04 Created by KiCad (PCBNEW 7.0.8-7.0.8~ubuntu22.04.1) date 2023-11-11 15:44:52*
%MOMM*%
%LPD*%
G01*
G04 APERTURE LIST*
G04 Aperture macros list*
%AMRoundRect*
0 Rectangle with rounded corners*
0 $1 Rounding radius*
0 $2 $3 $4 $5 $6 $7 $8 $9 X,Y pos of 4 corners*
0 Add a 4 corners polygon primitive as box body*
4,1,4,$2,$3,$4,$5,$6,$7,$8,$9,$2,$3,0*
0 Add four circle primitives for the rounded corners*
1,1,$1+$1,$2,$3*
1,1,$1+$1,$4,$5*
1,1,$1+$1,$6,$7*
1,1,$1+$1,$8,$9*
0 Add four rect primitives between the rounded corners*
20,1,$1+$1,$2,$3,$4,$5,0*
20,1,$1+$1,$4,$5,$6,$7,0*
20,1,$1+$1,$6,$7,$8,$9,0*
20,1,$1+$1,$8,$9,$2,$3,0*%
G04 Aperture macros list end*
%ADD10C,1.600000*%
%ADD11R,1.600000X1.600000*%
%ADD12O,1.600000X1.600000*%
%ADD13R,1.700000X1.700000*%
%ADD14O,1.700000X1.700000*%
%ADD15C,3.200000*%
%ADD16O,3.500000X3.500000*%
%ADD17R,1.905000X2.000000*%
%ADD18O,1.905000X2.000000*%
%ADD19C,2.000000*%
%ADD20R,3.500000X3.500000*%
%ADD21RoundRect,0.750000X-0.750000X-1.000000X0.750000X-1.000000X0.750000X1.000000X-0.750000X1.000000X0*%
%ADD22RoundRect,0.875000X-0.875000X-0.875000X0.875000X-0.875000X0.875000X0.875000X-0.875000X0.875000X0*%
%ADD23R,2.200000X2.200000*%
%ADD24O,2.200000X2.200000*%
%ADD25R,1.500000X1.050000*%
%ADD26O,1.500000X1.050000*%
%ADD27R,1.800000X1.800000*%
%ADD28C,1.800000*%
%ADD29R,2.000000X1.440000*%
%ADD30O,2.000000X1.440000*%
G04 APERTURE END LIST*
D10*
X91440000Y-87075000D03*
X91440000Y-92075000D03*
D11*
X91440000Y-53340000D03*
D12*
X93980000Y-53340000D03*
X96520000Y-53340000D03*
X99060000Y-53340000D03*
X101600000Y-53340000D03*
X104140000Y-53340000D03*
X106680000Y-53340000D03*
X109220000Y-53340000D03*
X111760000Y-53340000D03*
X114300000Y-53340000D03*
X116840000Y-53340000D03*
X119380000Y-53340000D03*
X121920000Y-53340000D03*
X124460000Y-53340000D03*
X127000000Y-53340000D03*
X129540000Y-53340000D03*
X132080000Y-53340000D03*
X134620000Y-53340000D03*
X137160000Y-53340000D03*
X139700000Y-53340000D03*
X139700000Y-38100000D03*
X137160000Y-38100000D03*
X134620000Y-38100000D03*
X132080000Y-38100000D03*
X129540000Y-38100000D03*
X127000000Y-38100000D03*
X124460000Y-38100000D03*
X121920000Y-38100000D03*
X119380000Y-38100000D03*
X116840000Y-38100000D03*
X114300000Y-38100000D03*
X111760000Y-38100000D03*
X109220000Y-38100000D03*
X106680000Y-38100000D03*
X104140000Y-38100000D03*
X101600000Y-38100000D03*
X99060000Y-38100000D03*
X96520000Y-38100000D03*
X93980000Y-38100000D03*
X91440000Y-38100000D03*
D13*
X93980000Y-27940000D03*
D14*
X96520000Y-27940000D03*
X99060000Y-27940000D03*
X101600000Y-27940000D03*
X104140000Y-27940000D03*
X106680000Y-27940000D03*
X109220000Y-27940000D03*
X111760000Y-27940000D03*
X114300000Y-27940000D03*
X116840000Y-27940000D03*
X119380000Y-27940000D03*
X121920000Y-27940000D03*
X124460000Y-27940000D03*
X127000000Y-27940000D03*
X129540000Y-27940000D03*
X132080000Y-27940000D03*
D15*
X64770000Y-27940000D03*
D10*
X74930000Y-38100000D03*
D12*
X82550000Y-38100000D03*
D11*
X89535000Y-71120000D03*
D10*
X89535000Y-73620000D03*
D15*
X213360000Y-27940000D03*
D10*
X93345000Y-64770000D03*
D12*
X93345000Y-57150000D03*
D15*
X213360000Y-101600000D03*
D13*
X139700000Y-27940000D03*
D14*
X142240000Y-27940000D03*
X144780000Y-27940000D03*
X147320000Y-27940000D03*
X149860000Y-27940000D03*
X152400000Y-27940000D03*
X154940000Y-27940000D03*
X157480000Y-27940000D03*
X160020000Y-27940000D03*
X162560000Y-27940000D03*
X165100000Y-27940000D03*
X167640000Y-27940000D03*
X170180000Y-27940000D03*
X172720000Y-27940000D03*
X175260000Y-27940000D03*
X177800000Y-27940000D03*
D13*
X129540000Y-101575000D03*
D14*
X132080000Y-101575000D03*
X134620000Y-101575000D03*
X137160000Y-101575000D03*
X139700000Y-101575000D03*
X142240000Y-101575000D03*
X144780000Y-101575000D03*
X147320000Y-101575000D03*
X149860000Y-101575000D03*
X152400000Y-101575000D03*
X154940000Y-101575000D03*
X157480000Y-101575000D03*
X160020000Y-101575000D03*
X162560000Y-101575000D03*
X165100000Y-101575000D03*
X167640000Y-101575000D03*
X170180000Y-101575000D03*
X172720000Y-101575000D03*
X175260000Y-101575000D03*
X177800000Y-101575000D03*
D10*
X180975000Y-69850000D03*
X180975000Y-64850000D03*
D11*
X70485000Y-50800000D03*
D10*
X85725000Y-50800000D03*
X85725000Y-43180000D03*
X70485000Y-43180000D03*
X97790000Y-64770000D03*
D12*
X97790000Y-57150000D03*
D13*
X118110000Y-69215000D03*
D14*
X118110000Y-66675000D03*
D13*
X121920000Y-101600000D03*
D14*
X119380000Y-101600000D03*
X116840000Y-101600000D03*
X114300000Y-101600000D03*
X111760000Y-101600000D03*
X109220000Y-101600000D03*
X106680000Y-101600000D03*
X104140000Y-101600000D03*
X101600000Y-101600000D03*
X99060000Y-101600000D03*
D11*
X176530000Y-64135000D03*
D12*
X173990000Y-64135000D03*
X171450000Y-64135000D03*
X168910000Y-64135000D03*
X166370000Y-64135000D03*
X163830000Y-64135000D03*
X161290000Y-64135000D03*
X161290000Y-71755000D03*
X163830000Y-71755000D03*
X166370000Y-71755000D03*
X168910000Y-71755000D03*
X171450000Y-71755000D03*
X173990000Y-71755000D03*
X176530000Y-71755000D03*
D10*
X83225000Y-91440000D03*
X88225000Y-91440000D03*
D11*
X152400000Y-64135000D03*
D12*
X149860000Y-64135000D03*
X147320000Y-64135000D03*
X144780000Y-64135000D03*
X142240000Y-64135000D03*
X139700000Y-64135000D03*
X137160000Y-64135000D03*
X134620000Y-64135000D03*
X132080000Y-64135000D03*
X129540000Y-64135000D03*
X127000000Y-64135000D03*
X124460000Y-64135000D03*
X124460000Y-71755000D03*
X127000000Y-71755000D03*
X129540000Y-71755000D03*
X132080000Y-71755000D03*
X134620000Y-71755000D03*
X137160000Y-71755000D03*
X139700000Y-71755000D03*
X142240000Y-71755000D03*
X144780000Y-71755000D03*
X147320000Y-71755000D03*
X149860000Y-71755000D03*
X152400000Y-71755000D03*
D15*
X64770000Y-101600000D03*
D10*
X198200000Y-91440000D03*
X203200000Y-91440000D03*
D16*
X103505000Y-89980000D03*
D17*
X106045000Y-73320000D03*
D18*
X103505000Y-73320000D03*
X100965000Y-73320000D03*
D10*
X198120000Y-30480000D03*
D12*
X205740000Y-30480000D03*
D19*
X196700000Y-97100000D03*
X203200000Y-97100000D03*
X196700000Y-101600000D03*
X203200000Y-101600000D03*
D11*
X149860000Y-53340000D03*
D12*
X152400000Y-53340000D03*
X154940000Y-53340000D03*
X157480000Y-53340000D03*
X160020000Y-53340000D03*
X162560000Y-53340000D03*
X165100000Y-53340000D03*
X167640000Y-53340000D03*
X170180000Y-53340000D03*
X172720000Y-53340000D03*
X175260000Y-53340000D03*
X177800000Y-53340000D03*
X180340000Y-53340000D03*
X182880000Y-53340000D03*
X182880000Y-38100000D03*
X180340000Y-38100000D03*
X177800000Y-38100000D03*
X175260000Y-38100000D03*
X172720000Y-38100000D03*
X170180000Y-38100000D03*
X167640000Y-38100000D03*
X165100000Y-38100000D03*
X162560000Y-38100000D03*
X160020000Y-38100000D03*
X157480000Y-38100000D03*
X154940000Y-38100000D03*
X152400000Y-38100000D03*
X149860000Y-38100000D03*
D10*
X144780000Y-46395000D03*
X144780000Y-51395000D03*
X182880000Y-93980000D03*
D12*
X190500000Y-93980000D03*
D13*
X66040000Y-71120000D03*
D14*
X66040000Y-73660000D03*
X66040000Y-76200000D03*
D13*
X66040000Y-58420000D03*
D14*
X66040000Y-60960000D03*
X66040000Y-63500000D03*
D10*
X111165000Y-61595000D03*
X116165000Y-61595000D03*
D20*
X75215000Y-87942500D03*
D21*
X69215000Y-87942500D03*
D22*
X72215000Y-92642500D03*
D10*
X105410000Y-64770000D03*
D12*
X105410000Y-57150000D03*
D10*
X89535000Y-83145000D03*
X89535000Y-78145000D03*
D23*
X81280000Y-71120000D03*
D24*
X71120000Y-71120000D03*
D11*
X127000000Y-93345000D03*
D12*
X129540000Y-93345000D03*
X132080000Y-93345000D03*
X134620000Y-93345000D03*
X137160000Y-93345000D03*
X139700000Y-93345000D03*
X142240000Y-93345000D03*
X144780000Y-93345000D03*
X147320000Y-93345000D03*
X149860000Y-93345000D03*
X152400000Y-93345000D03*
X154940000Y-93345000D03*
X157480000Y-93345000D03*
X160020000Y-93345000D03*
X162560000Y-93345000D03*
X165100000Y-93345000D03*
X167640000Y-93345000D03*
X170180000Y-93345000D03*
X172720000Y-93345000D03*
X175260000Y-93345000D03*
X175260000Y-78105000D03*
X172720000Y-78105000D03*
X170180000Y-78105000D03*
X167640000Y-78105000D03*
X165100000Y-78105000D03*
X162560000Y-78105000D03*
X160020000Y-78105000D03*
X157480000Y-78105000D03*
X154940000Y-78105000D03*
X152400000Y-78105000D03*
X149860000Y-78105000D03*
X147320000Y-78105000D03*
X144780000Y-78105000D03*
X142240000Y-78105000D03*
X139700000Y-78105000D03*
X137160000Y-78105000D03*
X134620000Y-78105000D03*
X132080000Y-78105000D03*
X129540000Y-78105000D03*
X127000000Y-78105000D03*
D25*
X85090000Y-85090000D03*
D26*
X85090000Y-83820000D03*
X85090000Y-82550000D03*
D10*
X156845000Y-70405000D03*
X156845000Y-65405000D03*
D27*
X193040000Y-30480000D03*
D28*
X190500000Y-30480000D03*
D10*
X186055000Y-69850000D03*
X186055000Y-64850000D03*
X179705000Y-88225000D03*
X179705000Y-83225000D03*
D13*
X190500000Y-101600000D03*
D14*
X187960000Y-101600000D03*
D13*
X73660000Y-101600000D03*
D14*
X76200000Y-101600000D03*
X78740000Y-101600000D03*
X81280000Y-101600000D03*
X83820000Y-101600000D03*
X86360000Y-101600000D03*
D29*
X208280000Y-76200000D03*
D30*
X208280000Y-73660000D03*
X208280000Y-71120000D03*
X208280000Y-68580000D03*
X208280000Y-66040000D03*
X208280000Y-63500000D03*
X208280000Y-60960000D03*
X208280000Y-58420000D03*
X208280000Y-55880000D03*
X208280000Y-53340000D03*
X208280000Y-50800000D03*
X208280000Y-48260000D03*
X208280000Y-45720000D03*
X208280000Y-43180000D03*
X193040000Y-43180000D03*
X193040000Y-45720000D03*
X193040000Y-48260000D03*
X193040000Y-50800000D03*
X193040000Y-53340000D03*
X193040000Y-55880000D03*
X193040000Y-58420000D03*
X193040000Y-60960000D03*
X193040000Y-63500000D03*
X193040000Y-66040000D03*
X193040000Y-68580000D03*
X193040000Y-71120000D03*
X193040000Y-73660000D03*
X193040000Y-76200000D03*
D13*
X73660000Y-27940000D03*
D14*
X76200000Y-27940000D03*
X78740000Y-27940000D03*
X81280000Y-27940000D03*
X83820000Y-27940000D03*
X86360000Y-27940000D03*
D23*
X117475000Y-90805000D03*
D24*
X117475000Y-80645000D03*
D11*
X78105000Y-64135000D03*
D10*
X85725000Y-64135000D03*
X85725000Y-56515000D03*
X78105000Y-56515000D03*
M02*
